<svg xmlns="http://www.w3.org/2000/svg" viewBox="0 0 1200 1034" width="1200" height="1034" role="img" aria-label="What the operator prepares before meeting each antibody">
<style>
text{font-family:'Helvetica Neue',Helvetica,Arial,sans-serif;fill:#1C1D20}
.kicker{font-size:18px;letter-spacing:3px;fill:#5A5B62;font-weight:700}
.h{font-size:36px;font-weight:700;letter-spacing:-.4px}
.cap{font-size:18px;letter-spacing:2.2px;font-weight:700}
.lab{font-size:24px;font-weight:700}
.body{font-size:22px}
.mut{font-size:20px;fill:#55565D}
.note{font-size:19px;fill:#55565D}
.red{fill:#B0432D}
.gold{fill:#8A6D12}
.inv{fill:#F7F6F3}
.mid{text-anchor:middle}
.end{text-anchor:end}
</style>
<rect width="1200" height="1034" fill="#F7F6F3"/>
<text class="kicker" x="64" y="72">FIGURE 12.2 — THE ARRIVAL CHECKLIST</text>
<text class="h" x="64" y="122">Arrive with the answer already written.</text>
<line x1="64" y1="152" x2="1136" y2="152" stroke="#D2D1CD"/>
<g transform="translate(0,0)">
<text class="cap" x="64" y="206">ANTIBODY</text><text class="cap" x="320" y="206">WHAT THE OPERATOR BRINGS</text><text class="cap" x="830" y="206">FORMAT</text>
<line x1="64" y1="222" x2="1136" y2="222" stroke="#8A8B92" stroke-width="2"/>
<rect x="64" y="238" width="1072" height="136" fill="#ECEBE7" stroke="#D2D1CD"/>
<rect x="82" y="266" width="12" height="12" fill="#B8952B"/><text class="lab" x="106" y="280" style="font-size:22px">Procurement</text>
<rect x="320" y="264" width="8" height="8" fill="#B8952B"/><text class="body" x="340" y="276" style="font-size:20px">Time-and-capability contract with</text>
<text class="body" x="340" y="302" style="font-size:20px">4-week break clause</text>
<rect x="320" y="326" width="8" height="8" fill="#B8952B"/><text class="body" x="340" y="338" style="font-size:20px">Vendor comparison sheet (FD vs</text>
<text class="body" x="340" y="364" style="font-size:20px">consulting vs do-nothing)</text>
<text class="mut" x="830" y="276">Commercial proposal in</text>
<text class="mut" x="830" y="302">procurement’s existing template</text>
<rect x="64" y="386" width="1072" height="136" fill="#F7F6F3" stroke="#D2D1CD"/>
<rect x="82" y="414" width="12" height="12" fill="#B8952B"/><text class="lab" x="106" y="428" style="font-size:22px">IT Governance</text>
<rect x="320" y="412" width="8" height="8" fill="#B8952B"/><text class="body" x="340" y="424" style="font-size:20px">Architecture note showing no new</text>
<text class="body" x="340" y="450" style="font-size:20px">tech introduced</text>
<rect x="320" y="474" width="8" height="8" fill="#B8952B"/><text class="body" x="340" y="486" style="font-size:20px">Named IT co-owner already in</text>
<text class="body" x="340" y="512" style="font-size:20px">design sessions</text>
<text class="mut" x="830" y="424">1-page architecture note,</text>
<text class="mut" x="830" y="450">co-signed by IT team member</text>
<rect x="64" y="534" width="1072" height="136" fill="#ECEBE7" stroke="#D2D1CD"/>
<rect x="82" y="562" width="12" height="12" fill="#B8952B"/><text class="lab" x="106" y="576" style="font-size:22px">Data Security</text>
<rect x="320" y="560" width="8" height="8" fill="#B8952B"/><text class="body" x="340" y="572" style="font-size:20px">SOC 2 report, pen test, cyber</text>
<text class="body" x="340" y="598" style="font-size:20px">insurance</text>
<rect x="320" y="622" width="8" height="8" fill="#B8952B"/><text class="body" x="340" y="634" style="font-size:20px">Minimum-viable-access proposal</text>
<text class="body" x="340" y="660" style="font-size:20px">with audit logging</text>
<text class="mut" x="830" y="572">Security posture pack +</text>
<text class="mut" x="830" y="598">field-level access request</text>
<rect x="64" y="682" width="1072" height="136" fill="#F7F6F3" stroke="#D2D1CD"/>
<rect x="82" y="710" width="12" height="12" fill="#B8952B"/><text class="lab" x="106" y="724" style="font-size:22px">Compliance</text>
<rect x="320" y="708" width="8" height="8" fill="#B8952B"/><text class="body" x="340" y="720" style="font-size:20px">Regulatory mapping of the</text>
<text class="body" x="340" y="746" style="font-size:20px">specific workflow</text>
<rect x="320" y="770" width="8" height="8" fill="#B8952B"/><text class="body" x="340" y="782" style="font-size:20px">Brief showing automation</text>
<text class="body" x="340" y="808" style="font-size:20px">preserves compliance</text>
<text class="mut" x="830" y="720">Pre-classification as</text>
<text class="mut" x="830" y="746">“process improvement”</text>
<rect x="64" y="830" width="1072" height="136" fill="#ECEBE7" stroke="#D2D1CD"/>
<rect x="82" y="858" width="12" height="12" fill="#B8952B"/><text class="lab" x="106" y="872" style="font-size:22px">PMO</text>
<rect x="320" y="856" width="8" height="8" fill="#B8952B"/><text class="body" x="340" y="868" style="font-size:20px">Deployment sized below the project</text>
<text class="body" x="340" y="894" style="font-size:20px">governance threshold</text>
<rect x="320" y="918" width="8" height="8" fill="#B8952B"/><text class="body" x="340" y="930" style="font-size:20px">Lightweight governance alternative</text>
<text class="body" x="340" y="956" style="font-size:20px">(monthly 1-pager)</text>
<text class="mut" x="830" y="868">Operational improvement,</text>
<text class="mut" x="830" y="894">not a project</text>

</g>
</svg>
